<svg width="502.101" height="77.405" viewBox="0 0 502.101 77.405" xmlns="http://www.w3.org/2000/svg"><g id="svgGroup" stroke-linecap="round" fill-rule="evenodd" font-size="9pt" stroke="#8b5e3b00" stroke-width="0.25mm" fill="#8b5e3b" style="stroke:#8b5e3b00;stroke-width:0.25mm;fill:#8b5e3b"><path d="M 35.101 77.403 A 34.679 34.679 0 0 0 53.406 72.286 A 29.293 29.293 0 0 0 60.601 66.003 A 11.713 11.713 0 0 0 61.635 64.567 C 61.986 63.986 62.242 63.422 62.415 62.867 A 6.208 6.208 0 0 0 62.701 61.003 A 6.143 6.143 0 0 0 56.664 54.905 A 6.535 6.535 0 0 0 56.501 54.903 C 54.501 54.903 52.801 55.803 51.201 57.503 A 22.524 22.524 0 0 1 45.144 62.458 A 20.288 20.288 0 0 1 35.201 64.903 C 24.072 64.903 15.763 57.654 14.176 47.059 A 25.348 25.348 0 0 1 13.901 43.303 A 23.122 23.122 0 0 1 16.966 31.482 C 20.591 25.329 27.16 21.503 35.201 21.503 A 20.202 20.202 0 0 1 50.273 27.778 A 24.779 24.779 0 0 1 51.301 28.903 A 8.525 8.525 0 0 0 53.224 30.547 A 6.216 6.216 0 0 0 56.501 31.503 A 6.362 6.362 0 0 0 61.345 29.283 A 5.965 5.965 0 0 0 62.801 25.403 C 62.801 23.603 62.101 22.003 60.701 20.403 A 32.316 32.316 0 0 0 42.165 9.692 A 35.481 35.481 0 0 0 35.201 9.003 A 35.78 35.78 0 0 0 11.703 17.506 A 33.6 33.6 0 0 0 0.001 43.203 A 33.997 33.997 0 0 0 30.534 77.132 A 38.299 38.299 0 0 0 35.101 77.403 Z M 342.501 38.303 L 335.001 35.003 C 331.675 33.481 329.652 32.309 328.52 30.984 A 5.131 5.131 0 0 1 327.301 27.403 C 327.301 23.303 330.701 21.003 335.501 21.003 A 12.736 12.736 0 0 1 339.251 21.546 C 341.602 22.264 343.465 23.607 345.167 25.062 A 50.814 50.814 0 0 1 345.901 25.703 A 6.473 6.473 0 0 0 346.845 26.36 C 347.59 26.783 348.353 27.008 349.089 27.078 A 5.402 5.402 0 0 0 349.601 27.103 A 6.286 6.286 0 0 0 355.792 21.419 A 5.562 5.562 0 0 0 355.801 21.103 A 5.831 5.831 0 0 0 355.542 19.366 C 355.398 18.9 355.184 18.421 354.881 17.938 A 7.524 7.524 0 0 0 354.001 16.803 C 351.201 13.603 345.401 9.003 335.501 9.003 A 26.282 26.282 0 0 0 324.42 11.313 A 17.729 17.729 0 0 0 313.601 27.703 C 313.601 35.362 318.067 40.748 326.633 45.251 A 59.988 59.988 0 0 0 329.601 46.703 L 336.701 49.903 C 342.801 52.703 345.101 54.303 345.101 58.103 A 6.558 6.558 0 0 1 341.175 64.325 C 340.179 64.801 339.009 65.128 337.681 65.288 A 16.508 16.508 0 0 1 335.701 65.403 C 329.629 65.403 325.199 62.118 322.413 59.418 A 33.827 33.827 0 0 1 321.601 58.603 A 5.049 5.049 0 0 0 319.529 57.492 C 319.358 57.446 319.185 57.408 319.013 57.379 A 5.505 5.505 0 0 0 318.101 57.303 A 6.124 6.124 0 0 0 311.987 62.402 A 6.607 6.607 0 0 0 311.901 63.303 C 311.901 65.203 312.801 66.903 314.401 68.503 A 26.072 26.072 0 0 0 322.565 74.358 C 325.368 75.682 328.429 76.62 331.49 77.08 A 28.386 28.386 0 0 0 335.701 77.403 A 28.532 28.532 0 0 0 347.152 75.162 C 354.199 72.074 358.765 65.943 358.8 57.7 A 22.501 22.501 0 0 0 358.801 57.603 A 16.395 16.395 0 0 0 352.65 44.324 C 350.087 42.128 346.712 40.178 342.501 38.303 Z M 475.701 54.403 L 475.701 32.403 A 6.943 6.943 0 0 0 474.399 28.273 C 473.196 26.625 471.257 25.603 469.001 25.603 A 7.053 7.053 0 0 0 465.296 26.595 C 463.573 27.647 462.447 29.455 462.237 31.646 A 7.901 7.901 0 0 0 462.201 32.403 L 462.201 55.503 C 462.201 61.003 458.401 65.003 453.001 65.003 C 447.997 65.003 444.317 61.692 443.694 56.953 A 11.12 11.12 0 0 1 443.601 55.503 L 443.601 32.403 A 6.943 6.943 0 0 0 442.299 28.273 C 441.096 26.625 439.157 25.603 436.901 25.603 A 6.891 6.891 0 0 0 432.705 26.959 C 431.096 28.176 430.101 30.118 430.101 32.403 L 430.101 54.403 A 24.538 24.538 0 0 0 433.049 66.43 C 436.275 72.223 441.955 76.107 449.122 77.132 A 27.381 27.381 0 0 0 453.001 77.403 C 464.698 77.403 473.379 70.131 475.301 59.126 A 27.443 27.443 0 0 0 475.701 54.403 Z M 210.901 56.003 L 239.101 56.003 A 8.733 8.733 0 0 0 242.607 55.32 C 245.018 54.267 246.501 52.056 246.501 49.103 L 246.501 48.803 C 246.501 36.399 237.932 27.08 225.951 25.763 A 26.994 26.994 0 0 0 223.001 25.603 C 208.822 25.603 197.944 36.166 197.328 50.24 A 28.897 28.897 0 0 0 197.301 51.503 A 25.304 25.304 0 0 0 217.086 76.539 A 30.712 30.712 0 0 0 224.401 77.403 C 230.201 77.403 235.601 75.803 240.101 72.803 C 241.41 71.93 242.302 71.057 242.843 70.087 A 5.355 5.355 0 0 0 243.501 67.403 C 243.501 64.416 241.273 62.172 238.338 62.012 A 6.19 6.19 0 0 0 238.001 62.003 C 237.192 62.003 236.449 62.199 235.665 62.591 A 8.461 8.461 0 0 0 235.101 62.903 A 19.381 19.381 0 0 1 226.154 65.756 A 19.728 19.728 0 0 1 224.801 65.803 A 17.717 17.717 0 0 1 219.005 64.901 A 12.247 12.247 0 0 1 210.901 56.003 Z M 267.801 56.003 L 296.001 56.003 A 8.733 8.733 0 0 0 299.507 55.32 C 301.918 54.267 303.401 52.056 303.401 49.103 L 303.401 48.803 C 303.401 36.399 294.832 27.08 282.851 25.763 A 26.994 26.994 0 0 0 279.901 25.603 C 265.722 25.603 254.844 36.166 254.228 50.24 A 28.897 28.897 0 0 0 254.201 51.503 A 25.304 25.304 0 0 0 273.986 76.539 A 30.712 30.712 0 0 0 281.301 77.403 C 287.101 77.403 292.501 75.803 297.001 72.803 C 298.31 71.93 299.202 71.057 299.743 70.087 A 5.355 5.355 0 0 0 300.401 67.403 C 300.401 64.416 298.173 62.172 295.238 62.012 A 6.19 6.19 0 0 0 294.901 62.003 C 294.092 62.003 293.349 62.199 292.565 62.591 A 8.461 8.461 0 0 0 292.001 62.903 A 19.381 19.381 0 0 1 283.054 65.756 A 19.728 19.728 0 0 1 281.701 65.803 A 17.717 17.717 0 0 1 275.905 64.901 A 12.247 12.247 0 0 1 267.801 56.003 Z M 137.001 18.603 L 137.001 26.703 L 134.801 26.703 A 5.96 5.96 0 0 0 131.234 27.831 C 129.859 28.845 129.001 30.469 129.001 32.403 A 5.71 5.71 0 0 0 130.124 35.878 C 131.164 37.257 132.841 38.103 134.801 38.103 L 137.001 38.103 L 137.001 70.503 C 137.001 74.403 139.901 77.403 143.801 77.403 C 147.601 77.403 150.501 74.503 150.501 70.503 L 150.501 38.103 L 156.701 38.103 C 159.746 38.103 162.025 36.059 162.359 33.15 A 6.557 6.557 0 0 0 162.401 32.403 C 162.401 29.357 160.357 27.078 157.448 26.745 A 6.557 6.557 0 0 0 156.701 26.703 L 150.501 26.703 L 150.501 19.803 C 150.501 15.577 152.434 12.913 155.916 12.26 A 9.677 9.677 0 0 1 157.701 12.103 A 7.689 7.689 0 0 1 158.074 12.112 C 158.585 12.137 158.976 12.203 159.301 12.203 A 7.118 7.118 0 0 0 161.942 11.732 C 163.905 10.95 165.102 9.244 165.195 6.988 A 6.944 6.944 0 0 0 165.201 6.703 A 6.236 6.236 0 0 0 164.556 3.874 A 5.454 5.454 0 0 0 161.801 1.303 C 160.098 0.451 158.216 0.047 155.816 0.006 A 24.268 24.268 0 0 0 155.401 0.003 A 22.082 22.082 0 0 0 147.253 1.424 C 140.722 4.007 137.001 10.011 137.001 18.603 Z M 168.201 18.603 L 168.201 26.703 L 166.001 26.703 A 5.96 5.96 0 0 0 162.434 27.831 C 161.059 28.845 160.201 30.469 160.201 32.403 A 5.71 5.71 0 0 0 161.324 35.878 C 162.364 37.257 164.041 38.103 166.001 38.103 L 168.201 38.103 L 168.201 70.503 C 168.201 74.403 171.101 77.403 175.001 77.403 C 178.801 77.403 181.701 74.503 181.701 70.503 L 181.701 38.103 L 187.901 38.103 C 190.946 38.103 193.225 36.059 193.559 33.15 A 6.557 6.557 0 0 0 193.601 32.403 C 193.601 29.357 191.557 27.078 188.648 26.745 A 6.557 6.557 0 0 0 187.901 26.703 L 181.701 26.703 L 181.701 19.803 C 181.701 15.577 183.634 12.913 187.116 12.26 A 9.677 9.677 0 0 1 188.901 12.103 A 7.689 7.689 0 0 1 189.274 12.112 C 189.785 12.137 190.176 12.203 190.501 12.203 A 7.118 7.118 0 0 0 193.142 11.732 C 195.105 10.95 196.302 9.244 196.395 6.988 A 6.944 6.944 0 0 0 196.401 6.703 A 6.236 6.236 0 0 0 195.756 3.874 A 5.454 5.454 0 0 0 193.001 1.303 C 191.298 0.451 189.416 0.047 187.016 0.006 A 24.268 24.268 0 0 0 186.601 0.003 A 22.082 22.082 0 0 0 178.453 1.424 C 171.922 4.007 168.201 10.011 168.201 18.603 Z M 502.101 70.503 L 502.101 6.903 A 7.063 7.063 0 0 0 500.616 2.493 A 6.563 6.563 0 0 0 495.401 0.003 A 6.761 6.761 0 0 0 490.953 1.602 C 489.493 2.853 488.601 4.739 488.601 6.903 L 488.601 70.503 C 488.601 74.403 491.501 77.403 495.401 77.403 A 6.618 6.618 0 0 0 501.996 71.769 A 7.594 7.594 0 0 0 502.101 70.503 Z M 97.601 25.603 A 26.898 26.898 0 0 0 79.795 32.114 A 25.364 25.364 0 0 0 71.101 51.403 A 25.808 25.808 0 0 0 95.103 77.202 A 28.404 28.404 0 0 0 97.501 77.303 C 112.401 77.303 124.201 65.803 124.201 51.403 A 25.968 25.968 0 0 0 99.321 25.654 A 28.566 28.566 0 0 0 97.601 25.603 Z M 393.501 25.603 A 26.898 26.898 0 0 0 375.695 32.114 A 25.364 25.364 0 0 0 367.001 51.403 A 25.808 25.808 0 0 0 391.003 77.202 A 28.404 28.404 0 0 0 393.401 77.303 C 408.301 77.303 420.101 65.803 420.101 51.403 A 25.968 25.968 0 0 0 395.221 25.654 A 28.566 28.566 0 0 0 393.501 25.603 Z M 109.973 47.842 A 12.577 12.577 0 0 0 97.601 37.903 A 12.295 12.295 0 0 0 86.576 44.279 A 14.824 14.824 0 0 0 84.801 51.503 A 15.943 15.943 0 0 0 85.01 54.102 C 85.55 57.374 87.111 60.118 89.38 62.021 A 12.619 12.619 0 0 0 97.601 64.903 A 12.42 12.42 0 0 0 108.275 59.126 A 14.134 14.134 0 0 0 110.401 51.503 A 15.541 15.541 0 0 0 109.973 47.842 Z M 405.873 47.842 A 12.577 12.577 0 0 0 393.501 37.903 A 12.295 12.295 0 0 0 382.476 44.279 A 14.824 14.824 0 0 0 380.701 51.503 A 15.943 15.943 0 0 0 380.91 54.102 C 381.45 57.374 383.011 60.118 385.28 62.021 A 12.619 12.619 0 0 0 393.501 64.903 A 12.42 12.42 0 0 0 404.175 59.126 A 14.134 14.134 0 0 0 406.301 51.503 A 15.541 15.541 0 0 0 405.873 47.842 Z M 233.401 46.503 L 210.901 46.503 A 14.653 14.653 0 0 1 213.616 40.807 A 11.323 11.323 0 0 1 222.701 36.503 C 228.723 36.503 232.826 40.249 233.351 45.732 A 12.537 12.537 0 0 1 233.401 46.503 Z M 290.301 46.503 L 267.801 46.503 A 14.653 14.653 0 0 1 270.516 40.807 A 11.323 11.323 0 0 1 279.601 36.503 C 285.623 36.503 289.726 40.249 290.251 45.732 A 12.537 12.537 0 0 1 290.301 46.503 Z" vector-effect="non-scaling-stroke"/></g></svg>