<?xml version="1.0"?>
<svg version="1.1" xmlns="http://www.w3.org/2000/svg" width="156" height="36" style=""><path fill="#f5222d" d="M15.833984375,27.638671875q0-2.966796875,0.2666015625-5.9404296875t1.1142578125-5.8583984375q0.24609375-0.861328125,0.642578125-1.7021484375t0.970703125-1.4970703125t1.3671875-1.06640625t1.88671875-0.41015625l0.287109375,0.02734375q1.17578125,0.1640625,1.736328125,0.9501953125t0.560546875,1.9619140625q0,0.314453125-0.0751953125,0.7861328125t-0.2392578125,0.9091796875t-0.4443359375,0.7451171875t-0.7041015625,0.3076171875q-0.19140625-0.02734375-0.3486328125-0.068359375t-0.2939453125-0.177734375q0.21875-0.478515625,0.3896484375-0.998046875t0.1708984375-1.189453125q0-0.24609375-0.041015625-0.62890625t-0.1572265625-0.7587890625t-0.3076171875-0.65625t-0.533203125-0.2802734375q-0.861328125,0-1.44921875,0.9638671875t-0.984375,2.4609375t-0.587890625,3.30859375t-0.2939453125,3.5t-0.1162109375,3.048828125t-0.013671875,1.9208984375q0,0.65625-0.013671875,1.44921875l0,0.177734375q0.013671875,0.697265625,0.095703125,1.326171875q0.109375,0.7109375,0.423828125,1.23046875t0.984375,0.6015625q0.205078125,0.02734375,0.396484375,0.02734375q0.79296875,0,1.435546875-0.451171875q0.79296875-0.560546875,1.408203125-1.4560546875t1.09375-1.96875t0.8818359375-2.0302734375t0.7861328125-1.5859375t0.79296875-0.62890625q0.13671875,0,0.41015625,0.0546875t0.2734375,0.259765625q0,0.0546875-0.02734375,0.150390625t-0.068359375,0.150390625q-0.369140625,1.44921875-0.9365234375,3.0078125t-1.44921875,2.8369140625t-2.16015625,2.0849609375t-3.0693359375,0.806640625q-1.28515625,0-2.0849609375-0.4853515625t-1.23046875-1.298828125t-0.587890625-1.8388671875t-0.1572265625-2.078125z M30.40369140625,22.333984375q0-0.806640625,0.0888671875-1.955078125t0.328125-2.392578125t0.642578125-2.474609375t1.0322265625-2.173828125t1.50390625-1.490234375q0.724609375-0.451171875,1.66796875-0.451171875q0.19140625,0,0.396484375,0.02734375q2.37890625,0.21875,3.6572265625,1.0869140625t1.8662109375,2.201171875t0.68359375,3.03515625t0.095703125,3.5888671875q0,1.517578125-0.2802734375,3.3017578125t-0.9912109375,3.3291015625t-1.9619140625,2.5771484375t-3.1787109375,1.0322265625q-1.17578125,0-2.0576171875-0.4306640625t-1.4970703125-1.1484375t-1.01171875-1.66796875t-0.6015625-1.96875t-0.2939453125-2.0576171875t-0.0888671875-1.96875z M33.17908203125,21.71875q0,0.587890625,0.013671875,1.4423828125t0.1162109375,1.7978515625t0.2666015625,1.8798828125t0.4853515625,1.7021484375t0.8134765625,1.2578125t1.189453125,0.51953125l0.068359375,0q0.62890625,0,1.12109375-0.478515625q0.51953125-0.505859375,0.9228515625-1.216796875t0.697265625-1.4970703125t0.5263671875-1.3466796875l-0.0546875,0.123046875q0.396484375-1.2578125,0.533203125-2.5771484375t0.13671875-2.6044921875q0-0.615234375-0.08203125-1.4833984375t-0.2666015625-1.8115234375t-0.478515625-1.8662109375t-0.7451171875-1.6064453125t-1.052734375-1.0390625q-0.4375-0.259765625-0.970703125-0.2734375q-0.205078125,0-0.41015625,0.041015625q-0.697265625,0.13671875-1.189453125,0.68359375t-0.7998046875,1.3466796875t-0.4716796875,1.75t-0.2529296875,1.9140625t-0.1025390625,1.845703125t-0.013671875,1.4970703125z M39.34509765625,25.9296875l0-0.02734375l0,0.02734375z M45.2194921875,29.703125q0.08203125-2.21484375,0.1435546875-4.5390625t0.1162109375-4.5869140625t0.08203125-4.3955078125t0.02734375-3.978515625q0.02734375-0.369140625,0.642578125-0.587890625t1.4697265625-0.3212890625t1.8046875-0.1298828125t1.6884765625-0.02734375q0.1640625,0,0.68359375-0.013671875l0.259765625,0q0.396484375,0,0.833984375,0.02734375q0.57421875,0.041015625,1.0048828125,0.177734375t0.4306640625,0.396484375q0,0.19140625-0.150390625,0.3076171875t-0.3486328125,0.1708984375t-0.41015625,0.068359375t-0.2939453125,0.013671875q-1.28515625,0-2.54296875-0.041015625q-0.341796875-0.013671875-0.697265625-0.013671875q-0.9296875,0-1.88671875,0.08203125q0.0546875,0.1640625,0.0888671875,0.9912109375t0.0341796875,1.8662109375t-0.013671875,2.0302734375t0,1.5244140625l0,3.5546875q0.423828125-0.02734375,0.833984375-0.02734375l0.8203125,0l0.546875-0.02734375q0.2734375-0.013671875,0.57421875-0.013671875q0.314453125,0,0.642578125,0.013671875q0.65625,0.02734375,1.1962890625,0.1572265625t0.5400390625,0.4580078125q0,0.24609375-0.205078125,0.3623046875t-0.4580078125,0.1708984375t-0.478515625,0.0546875l-0.2529296875,0q-0.779296875,0-1.6201171875-0.0546875t-1.5654296875-0.0546875q-0.13671875,0.0546875-0.2939453125,0.041015625t-0.2802734375-0.013671875q0,2.05078125-0.041015625,4.0810546875t-0.095703125,4.0400390625q0,0.396484375-0.4990234375,0.51953125t-0.9501953125,0.123046875q-0.505859375,0-0.7998046875-0.123046875t-0.4169921875-0.4033203125t-0.150390625-0.7451171875q-0.013671875-0.259765625-0.02734375-0.57421875q0-0.259765625,0.013671875-0.560546875z M56.39857421875,29.703125q0.08203125-2.21484375,0.1435546875-4.5390625t0.1162109375-4.5869140625t0.08203125-4.3955078125t0.02734375-3.978515625q0.02734375-0.369140625,0.642578125-0.587890625t1.4697265625-0.3212890625t1.8046875-0.1298828125t1.6884765625-0.02734375q0.1640625,0,0.68359375-0.013671875l0.259765625,0q0.396484375,0,0.833984375,0.02734375q0.57421875,0.041015625,1.0048828125,0.177734375t0.4306640625,0.396484375q0,0.19140625-0.150390625,0.3076171875t-0.3486328125,0.1708984375t-0.41015625,0.068359375t-0.2939453125,0.013671875q-1.28515625,0-2.54296875-0.041015625q-0.341796875-0.013671875-0.697265625-0.013671875q-0.9296875,0-1.88671875,0.08203125q0.0546875,0.1640625,0.0888671875,0.9912109375t0.0341796875,1.8662109375t-0.013671875,2.0302734375t0,1.5244140625l0,3.5546875q0.423828125-0.02734375,0.833984375-0.02734375l0.8203125,0l0.546875-0.02734375q0.2734375-0.013671875,0.57421875-0.013671875q0.314453125,0,0.642578125,0.013671875q0.65625,0.02734375,1.1962890625,0.1572265625t0.5400390625,0.4580078125q0,0.24609375-0.205078125,0.3623046875t-0.4580078125,0.1708984375t-0.478515625,0.0546875l-0.2529296875,0q-0.779296875,0-1.6201171875-0.0546875t-1.5654296875-0.0546875q-0.13671875,0.0546875-0.2939453125,0.041015625t-0.2802734375-0.013671875q0,2.05078125-0.041015625,4.0810546875t-0.095703125,4.0400390625q0,0.396484375-0.4990234375,0.51953125t-0.9501953125,0.123046875q-0.505859375,0-0.7998046875-0.123046875t-0.4169921875-0.4033203125t-0.150390625-0.7451171875q-0.013671875-0.259765625-0.02734375-0.57421875q0-0.259765625,0.013671875-0.560546875z M67.5503125,30.5234375q0.02734375-0.57421875,0.02734375-1.12109375q0-1.982421875,0.1435546875-3.951171875t0.1982421875-3.951171875q0.08203125-2.26953125,0.150390625-4.498046875t0.2734375-4.484375q0.0546875-0.560546875,0.3212890625-0.7314453125t0.7998046875-0.1708984375q0.24609375,0,0.65625,0.095703125t0.41015625,0.46484375q0.19140625,0.02734375,0.3828125,0.02734375q0.287109375,0,0.587890625-0.0546875q0.4921875-0.08203125,1.0048828125-0.1845703125t1.0185546875-0.1982421875t0.970703125-0.095703125q0.109375,0,0.3076171875,0.013671875t0.396484375,0.08203125t0.3349609375,0.1708984375t0.13671875,0.2666015625t-0.3212890625,0.2939453125t-0.8408203125,0.2255859375t-1.12109375,0.1640625t-1.17578125,0.1162109375t-1.0185546875,0.0751953125t-0.6357421875,0.02734375l-0.02734375,5.140625l0.02734375,2.556640625q0.423828125,0,1.271484375-0.02734375q0.341796875-0.013671875,0.68359375-0.013671875q0.51953125,0,1.06640625,0.02734375q0.90234375,0.041015625,1.626953125,0.1640625t0.916015625,0.4375q0,0.19140625-0.1982421875,0.3076171875t-0.4443359375,0.1708984375t-0.4990234375,0.068359375t-0.3623046875,0.013671875q-1.01171875,0-2.037109375-0.041015625t-2.0234375-0.1640625q0,1.681640625-0.0888671875,3.3359375t-0.0888671875,3.3359375q0,0.724609375,0.013671875,1.4287109375t0.1640625,1.4013671875q0.369140625-0.02734375,0.7998046875-0.068359375t0.875-0.1025390625t0.8544921875-0.1025390625t0.7109375-0.041015625q0.1640625,0,0.4443359375,0.041015625t0.57421875,0.13671875t0.505859375,0.2392578125t0.2119140625,0.3349609375q0,0.21875-0.4033203125,0.3896484375t-1.0322265625,0.2734375t-1.3740234375,0.1435546875t-1.4423828125,0.0546875t-1.2578125,0.013671875l-0.79296875,0q-0.751953125,0-1.1005859375-0.2802734375t-0.4853515625-0.7314453125q-0.109375-0.369140625-0.095703125-0.833984375l0-0.19140625z M78.92080078125,30.5234375q0.02734375-0.57421875,0.02734375-1.12109375q0-1.982421875,0.1435546875-3.951171875t0.1982421875-3.951171875q0.08203125-2.26953125,0.150390625-4.498046875t0.2734375-4.484375q0.0546875-0.560546875,0.3212890625-0.7314453125t0.7998046875-0.1708984375q0.24609375,0,0.65625,0.095703125t0.41015625,0.46484375q0.19140625,0.02734375,0.3828125,0.02734375q0.287109375,0,0.587890625-0.0546875q0.4921875-0.08203125,1.0048828125-0.1845703125t1.0185546875-0.1982421875t0.970703125-0.095703125q0.109375,0,0.3076171875,0.013671875t0.396484375,0.08203125t0.3349609375,0.1708984375t0.13671875,0.2666015625t-0.3212890625,0.2939453125t-0.8408203125,0.2255859375t-1.12109375,0.1640625t-1.17578125,0.1162109375t-1.0185546875,0.0751953125t-0.6357421875,0.02734375l-0.02734375,5.140625l0.02734375,2.556640625q0.423828125,0,1.271484375-0.02734375q0.341796875-0.013671875,0.68359375-0.013671875q0.51953125,0,1.06640625,0.02734375q0.90234375,0.041015625,1.626953125,0.1640625t0.916015625,0.4375q0,0.19140625-0.1982421875,0.3076171875t-0.4443359375,0.1708984375t-0.4990234375,0.068359375t-0.3623046875,0.013671875q-1.01171875,0-2.037109375-0.041015625t-2.0234375-0.1640625q0,1.681640625-0.0888671875,3.3359375t-0.0888671875,3.3359375q0,0.724609375,0.013671875,1.4287109375t0.1640625,1.4013671875q0.369140625-0.02734375,0.7998046875-0.068359375t0.875-0.1025390625t0.8544921875-0.1025390625t0.7109375-0.041015625q0.1640625,0,0.4443359375,0.041015625t0.57421875,0.13671875t0.505859375,0.2392578125t0.2119140625,0.3349609375q0,0.21875-0.4033203125,0.3896484375t-1.0322265625,0.2734375t-1.3740234375,0.1435546875t-1.4423828125,0.0546875t-1.2578125,0.013671875l-0.79296875,0q-0.751953125,0-1.1005859375-0.2802734375t-0.4853515625-0.7314453125q-0.109375-0.369140625-0.095703125-0.833984375l0-0.19140625z M95.64615234375,29.78515625q-0.013671875-0.41015625-0.013671875-0.8203125q0-1.28515625,0.13671875-2.583984375q0.1640625-1.72265625,0.21875-3.390625q0.0546875-1.955078125,0.1640625-4.060546875q0.068359375-1.1484375,0.068359375-2.26953125q0-0.916015625-0.041015625-1.818359375q0.13671875-0.314453125,0.3623046875-0.423828125t0.5673828125-0.109375q0.1640625,0,0.3486328125,0.02734375t0.3212890625,0.13671875q0.19140625,0.02734375,0.4716796875,0.0546875t0.4306640625,0.1640625q0.0546875,0.08203125,0.2802734375,0.560546875t0.533203125,1.162109375t0.642578125,1.4833984375t0.642578125,1.517578125t0.533203125,1.2646484375t0.2802734375,0.68359375q1.28515625-2.32421875,2.515625-4.7783203125t2.693359375-4.6279296875q0.13671875-0.19140625,0.4716796875-0.2802734375t0.5537109375-0.0888671875q0.587890625,0,0.8544921875,0.2802734375t0.3486328125,0.7177734375q0.0546875,0.2734375,0.068359375,0.587890625q0.013671875,0.1640625-0.013671875,0.341796875q-0.0546875,0.505859375-0.0546875,0.95703125q0,3.185546875-0.21875,6.3232421875t-0.396484375,6.3369140625q-0.02734375,0.65625-0.02734375,1.3671875t0.02734375,1.4765625q0.013671875,0.2734375,0.013671875,0.533203125q0,1.203125-0.205078125,2.2421875q-0.19140625,0.314453125-0.62890625,0.396484375t-0.73828125,0.08203125q-0.642578125,0-1.23046875-0.30078125l-0.150390625-0.177734375l-0.0546875-0.21875t-0.02734375-0.21875q0-1.982421875,0.1435546875-3.9921875t0.3212890625-4.0126953125t0.3759765625-3.9990234375t0.3349609375-3.9921875q-0.806640625,1.33984375-1.5654296875,2.7275390625t-1.4287109375,2.8232421875q-0.24609375,0.560546875-0.4716796875,1.203125t-0.5400390625,1.1484375q-0.1640625,0.24609375-0.5537109375,0.30078125t-0.6767578125,0.0546875q-0.2734375,0-0.5673828125-0.095703125t-0.4033203125-0.41015625q-0.505859375-1.544921875-1.080078125-3.021484375t-1.162109375-2.994140625q0,1.01171875,0.041015625,2.6181640625t0.041015625,3.3291015625t-0.0546875,3.294921875t-0.259765625,2.48828125q-0.0546875,0.341796875-0.4443359375,0.423828125t-0.6767578125,0.08203125q-0.21875,0-0.4169921875-0.02734375t-0.3896484375-0.109375z M111.883828125,31.80859375q0.0546875-2.857421875,0.2392578125-5.701171875t0.3212890625-5.701171875q0.02734375-1.09375,0.02734375-1.9892578125t0.0888671875-1.5517578125t0.328125-1.0048828125t0.7998046875-0.3486328125q0.478515625,0,0.724609375,0.13671875t0.3759765625,0.3486328125t0.1572265625,0.478515625t0.02734375,0.5400390625q0,0.396484375,0.02734375,0.7861328125t0.02734375,0.7861328125q0,2.884765625-0.1572265625,5.755859375t-0.1572265625,5.783203125q0,0.423828125,0.013671875,0.8544921875t0.013671875,0.8818359375q0,0.1640625-0.150390625,0.2734375t-0.3759765625,0.1845703125t-0.478515625,0.1025390625t-0.4169921875,0.02734375q-0.19140625,0-0.4306640625-0.02734375t-0.46484375-0.1162109375t-0.3828125-0.2119140625t-0.1572265625-0.287109375z M112.649453125,13.26953125q0-0.13671875,0.041015625-0.3076171875t0.095703125-0.3076171875q0.02734375-0.1640625,0.08203125-0.560546875t0.1982421875-0.7724609375t0.396484375-0.669921875t0.7177734375-0.2939453125l0.259765625,0q0.21875,0.0546875,0.4443359375,0.13671875t0.2255859375,0.396484375q0,0.13671875-0.013671875,0.259765625t-0.041015625,0.2734375q-0.109375,0.806640625-0.2119140625,1.271484375t-0.2392578125,0.7041015625t-0.3486328125,0.3076171875t-0.5400390625,0.095703125q-0.109375,0-0.2939453125-0.013671875t-0.35546875-0.068359375t-0.2939453125-0.1708984375t-0.123046875-0.2802734375z M117.90861328125,14.103515625q0-0.1640625,0.1572265625-0.24609375t0.341796875-0.123046875t0.3349609375-0.041015625l0.150390625,0q0.478515625,0,0.6904296875,0.21875t0.5126953125,0.560546875q2.05078125,2.966796875,3.759765625,6.1044921875t3.294921875,6.3505859375q0.13671875-3.74609375,0.2802734375-7.5400390625t0.3623046875-7.5263671875q0-0.1640625,0.1572265625-0.2734375t0.35546875-0.1640625t0.4033203125-0.068359375t0.314453125-0.013671875q0.1640625,0,0.3623046875,0.013671875t0.396484375,0.08203125t0.328125,0.1640625t0.1298828125,0.259765625q0.0546875,0.587890625,0.0615234375,1.1826171875t0.0068359375,1.1826171875q0,4.40234375-0.19140625,8.626953125t-0.19140625,8.53125l0,0.984375q0,0.0546875-0.0546875,0.1640625q0.02734375,0.109375,0.08203125,0.2392578125t0.0546875,0.1845703125q0,0.21875-0.2255859375,0.328125t-0.4921875,0.1708984375t-0.4716796875,0.0615234375t-0.150390625,0q-0.697265625,0-1.17578125-0.3828125t-0.478515625-0.916015625q-1.01171875-2.26953125-2.0166015625-4.5048828125t-2.0986328125-4.4501953125q-0.697265625-1.39453125-1.4013671875-2.7958984375t-1.5107421875-2.7138671875q0.02734375,0.02734375,0.02734375,0.08203125q0.13671875,1.3671875,0.2939453125,2.7275390625t0.2392578125,2.7275390625q0.0546875,1.17578125,0.123046875,2.37890625t0.21875,2.37890625q0,0.451171875-0.2802734375,0.57421875t-0.6494140625,0.123046875q-0.314453125,0-0.5947265625-0.08203125t-0.3349609375-0.41015625q0-1.2578125-0.095703125-2.6728515625t-0.177734375-2.8505859375q-0.13671875-1.900390625-0.3623046875-3.8623046875t-0.2255859375-3.8349609375q0-0.08203125,0.013671875-0.1708984375t0.013671875-0.1982421875q-0.08203125-0.13671875-0.1845703125-0.287109375t-0.1025390625-0.2734375z M133.0935546875,30.5234375q0.02734375-0.57421875,0.02734375-1.12109375q0-1.982421875,0.1435546875-3.951171875t0.1982421875-3.951171875q0.08203125-2.26953125,0.150390625-4.498046875t0.2734375-4.484375q0.0546875-0.560546875,0.3212890625-0.7314453125t0.7998046875-0.1708984375q0.24609375,0,0.65625,0.095703125t0.41015625,0.46484375q0.19140625,0.02734375,0.3828125,0.02734375q0.287109375,0,0.587890625-0.0546875q0.4921875-0.08203125,1.0048828125-0.1845703125t1.0185546875-0.1982421875t0.970703125-0.095703125q0.109375,0,0.3076171875,0.013671875t0.396484375,0.08203125t0.3349609375,0.1708984375t0.13671875,0.2666015625t-0.3212890625,0.2939453125t-0.8408203125,0.2255859375t-1.12109375,0.1640625t-1.17578125,0.1162109375t-1.0185546875,0.0751953125t-0.6357421875,0.02734375l-0.02734375,5.140625l0.02734375,2.556640625q0.423828125,0,1.271484375-0.02734375q0.341796875-0.013671875,0.68359375-0.013671875q0.51953125,0,1.06640625,0.02734375q0.90234375,0.041015625,1.626953125,0.1640625t0.916015625,0.4375q0,0.19140625-0.1982421875,0.3076171875t-0.4443359375,0.1708984375t-0.4990234375,0.068359375t-0.3623046875,0.013671875q-1.01171875,0-2.037109375-0.041015625t-2.0234375-0.1640625q0,1.681640625-0.0888671875,3.3359375t-0.0888671875,3.3359375q0,0.724609375,0.013671875,1.4287109375t0.1640625,1.4013671875q0.369140625-0.02734375,0.7998046875-0.068359375t0.875-0.1025390625t0.8544921875-0.1025390625t0.7109375-0.041015625q0.1640625,0,0.4443359375,0.041015625t0.57421875,0.13671875t0.505859375,0.2392578125t0.2119140625,0.3349609375q0,0.21875-0.4033203125,0.3896484375t-1.0322265625,0.2734375t-1.3740234375,0.1435546875t-1.4423828125,0.0546875t-1.2578125,0.013671875l-0.79296875,0q-0.751953125,0-1.1005859375-0.2802734375t-0.4853515625-0.7314453125q-0.109375-0.369140625-0.095703125-0.833984375l0-0.19140625z"/><path fill="#f5222d" d=""/></svg>
