<?xml version="1.0" standalone="no"?>
<!DOCTYPE svg PUBLIC "-//W3C//DTD SVG 20010904//EN"
 "http://www.w3.org/TR/2001/REC-SVG-20010904/DTD/svg10.dtd">
<svg version="1.0" xmlns="http://www.w3.org/2000/svg"
 width="775.000000pt" height="775.000000pt" viewBox="0 0 775.000000 775.000000"
 preserveAspectRatio="xMidYMid meet">

<g transform="translate(0.000000,775.000000) scale(0.100000,-0.100000)"
fill="#000000" stroke="none">
<path d="M3910 6519 c-219 -21 -459 -104 -648 -226 -278 -177 -500 -461 -601
-768 -56 -169 -74 -282 -74 -465 1 -173 17 -290 64 -445 29 -96 116 -274 181
-370 88 -132 1178 -1489 1204 -1499 14 -6 31 -6 43 0 34 16 1183 1462 1245
1567 342 580 245 1315 -234 1788 -252 248 -563 390 -925 420 -123 10 -135 10
-255 -2z m312 -504 c442 -78 782 -451 805 -882 l6 -103 36 -6 c52 -10 125 -49
164 -87 57 -57 72 -100 72 -202 0 -108 -19 -152 -100 -230 -88 -87 -211 -133
-373 -141 -93 -4 -94 -4 -140 -45 -26 -23 -75 -59 -109 -81 -35 -23 -63 -48
-63 -57 0 -31 -60 -90 -123 -120 -88 -43 -166 -61 -292 -68 -242 -12 -445 55
-505 169 -18 34 -43 59 -89 89 -402 266 -545 802 -329 1234 142 283 397 474
713 533 75 15 240 13 327 -3z"/>
<path d="M4150 5819 c-92 -55 -134 -123 -133 -216 1 -82 28 -130 120 -207 64
-55 103 -106 103 -135 0 -7 -39 -11 -119 -11 -119 0 -119 0 -137 28 -9 15 -36
44 -59 64 -58 51 -82 107 -67 155 6 20 10 38 8 40 -1 2 -18 -7 -36 -19 -68
-47 -90 -140 -49 -208 12 -19 28 -39 35 -43 27 -16 13 -27 -33 -27 -27 0 -95
-7 -153 -14 -218 -30 -325 -68 -325 -116 0 -71 255 -125 645 -137 449 -13 855
52 855 137 0 48 -107 87 -324 115 -57 8 -105 16 -107 18 -3 2 0 16 6 31 32 84
-5 169 -120 280 -100 95 -119 149 -84 236 9 23 15 43 12 45 -2 2 -19 -5 -38
-16z"/>
<path d="M4997 4797 c-9 -39 -39 -116 -66 -169 -47 -96 -47 -98 -25 -98 38 0
121 36 169 72 102 78 102 211 -1 254 -53 22 -58 19 -77 -59z"/>
</g>
</svg>
